<?xml version="1.0" encoding="UTF-8" standalone="no"?>
<!-- Created with Inkscape (http://www.inkscape.org/) -->
<svg
   xmlns:dc="http://purl.org/dc/elements/1.1/"
   xmlns:cc="http://web.resource.org/cc/"
   xmlns:rdf="http://www.w3.org/1999/02/22-rdf-syntax-ns#"
   xmlns:svg="http://www.w3.org/2000/svg"
   xmlns="http://www.w3.org/2000/svg"
   xmlns:sodipodi="http://sodipodi.sourceforge.net/DTD/sodipodi-0.dtd"
   xmlns:inkscape="http://www.inkscape.org/namespaces/inkscape"
   id="svg2609"
   sodipodi:version="0.32"
   inkscape:version="0.45.1"
   width="700"
   height="350"
   version="1.0"
   sodipodi:docbase="C:\Documents and Settings\Christopher\Desktop\Old Desktop\Stuff\Cetacean Size\New\SVG 2"
   sodipodi:docname="Vaquita size.svg"
   inkscape:output_extension="org.inkscape.output.svg.inkscape">
  <metadata
     id="metadata2614">
    <rdf:RDF>
      <cc:Work
         rdf:about="">
        <dc:format>image/svg+xml</dc:format>
        <dc:type
           rdf:resource="http://purl.org/dc/dcmitype/StillImage" />
      </cc:Work>
    </rdf:RDF>
  </metadata>
  <defs
     id="defs2612" />
  <sodipodi:namedview
     inkscape:window-height="573"
     inkscape:window-width="744"
     inkscape:pageshadow="2"
     inkscape:pageopacity="0.0"
     guidetolerance="10.0"
     gridtolerance="10.0"
     objecttolerance="10.0"
     borderopacity="1.0"
     bordercolor="#666666"
     pagecolor="#ffffff"
     id="base"
     inkscape:zoom="0.94142857"
     inkscape:cx="350"
     inkscape:cy="175"
     inkscape:window-x="132"
     inkscape:window-y="174"
     inkscape:current-layer="svg2609" />
  <path
     style="fill:#000000"
     d="M 586,336.28036 C 574.49439,334.96684 562.99064,330.71955 561.03344,327.06248 C 559.51778,324.23044 559.77391,312.28822 561.49176,305.69296 C 562.31222,302.54297 565.43943,293.78593 568.4411,286.23286 C 574.91372,269.94586 575.8355,265.51637 573.63697,261.26487 C 570.95093,256.07064 560.63078,247.70649 546.78893,239.5054 C 539.48002,235.17497 531.59691,230.34958 529.2709,228.78229 C 526.9449,227.21501 521.98026,224.68678 518.23837,223.164 C 504.38334,217.52566 492.32402,206.6116 479.57426,188.17178 C 475.32581,182.0273 471.41432,177 470.88206,177 C 468.56389,177 459.32514,166.78377 453.28603,157.54226 C 445.45166,145.55353 438.98906,137.72901 433.84169,134.00028 C 430.43528,131.53269 429.68079,131.36306 426.22009,132.28678 C 420.94173,133.69565 417.17619,132.51075 413.00833,128.12942 C 409.88404,124.8451 407.91894,123.96907 396.17617,120.62573 C 388.86397,118.54383 379.67916,115.75136 375.76548,114.42023 C 371.8518,113.0891 368.55597,112 368.44142,112 C 368.32688,112 367.97078,113.2375 367.65009,114.75 C 367.23528,116.70646 368.22698,120.10992 371.08683,126.54468 C 376.9804,139.80543 377.45843,139.22678 354.34573,146.8093 C 330.01831,154.79032 325.06518,155.99657 316.5399,156.01627 C 305.42214,156.04197 286.78225,157.81775 285.63997,158.96003 C 284.12529,160.47471 272.49293,160.2328 268.59857,158.60563 C 263.40217,156.43444 262,153.61481 262,145.33651 C 262,140.9227 262.4525,137.83838 263.16461,137.39827 C 267.32799,134.82516 288.44878,136.42596 291.00708,139.50853 C 291.98377,140.68537 294.17645,140.19614 304.83392,136.42348 C 318.05912,131.74186 335.28517,127 339.06714,127 C 341.11466,127 341.22651,126.66922 340.63592,122.36043 C 340.28617,119.80866 340,114.79339 340,111.21537 L 340,104.70989 L 334.68451,109.73706 C 328.84728,115.25766 317.93986,120.94811 303.64127,125.93245 L 294.78253,129.02051 L 266.51073,128.35278 C 238.82077,127.6988 238.21667,127.72663 237.15768,129.70538 C 234.68854,134.319 223.35334,135.30256 216.0683,131.53532 C 209.72793,128.25659 206.80511,118.20412 210.80241,113.42432 C 213.62325,110.05127 217.82349,107.71797 219.74228,108.45807 C 220.70903,108.83096 234.43999,109.53459 250.25554,110.02171 C 282.48515,111.01438 279.3569,111.45593 298.43802,103.22073 C 308.02386,99.083586 309.75456,97.955293 312.43802,94.093768 C 314.12211,91.67034 319.35778,84.92034 324.07285,79.093768 L 332.6457,68.5 L 330.07285,64.279301 C 327.65665,60.315585 327.22047,60.056818 322.90893,60.029301 C 316.45467,59.988109 309.37763,57.6382 304.92038,54.056259 C 301.85579,51.593485 300.17816,51 296.28114,51 C 293.52253,51 290.49026,50.331266 289.22251,49.443296 C 287.24174,48.055911 287,47.019127 287,39.911177 C 287,28.387953 290.41761,22 296.58263,22 C 297.75832,22 300.37178,20.442399 302.39033,18.538663 C 306.76228,14.415386 311.23591,13.011154 320,13.011154 C 334.70782,13.011154 342.77293,18.474147 344.55951,29.646809 C 345.17246,33.479964 348.9464,39 350.9541,39 C 351.53162,39 354.06954,36.194351 356.59392,32.765224 C 362.65338,24.534026 366.65135,21.776386 373.32803,21.222704 C 379.21384,20.734607 387.21293,23.134222 410,32.223781 C 429.73169,40.094577 438.53598,43.044173 452.862,46.583329 C 473.64789,51.718356 485.55772,58.292406 490.05891,67.115482 C 493.3183,73.504405 492.2098,81.557869 487.29886,87.167745 C 485.97902,88.675438 486.39805,89.193171 491.66518,92.562513 C 505.10566,101.16029 511.84255,110.92009 519.37266,132.70263 C 521.3125,138.31408 523.67361,144.38908 524.61955,146.20263 C 525.5655,148.01619 528.24497,154.225 530.57395,160 L 534.80844,170.5 L 558.15422,172.18584 C 570.9944,173.11306 587.35,174.78403 594.5,175.89912 C 601.65,177.0142 614.25,178.13353 622.5,178.38651 C 637.53243,178.84747 642.77534,179.81282 646.81936,182.86433 C 648.15808,183.8745 651.9914,191.83446 656.84334,203.67934 C 665.28217,224.28075 671.72296,235.19335 684.41497,250.39385 C 689.57519,256.57396 690.76178,258.58212 689.88062,259.64385 C 689.26159,260.38973 687.8945,261 686.84265,261 C 685.79079,261 681.29695,262.2008 676.85633,263.66844 C 669.65199,266.0495 668.11289,267.02988 662.56522,272.77167 C 657.11546,278.41211 655.79335,279.26897 651.85513,279.71286 C 647.7101,280.18007 647.14393,279.95977 644.54167,276.86715 C 640.64774,272.23948 638.47482,266.76905 634.9152,252.63212 C 633.23505,245.95945 629.81685,234.2357 627.3192,226.57934 C 623.04255,213.46962 622.47863,212.3661 617.639,207.63622 L 612.5,202.61375 L 594,202.39032 C 569.15964,202.09031 544.60994,198.85453 530.59747,194.03353 C 527.51886,192.97434 525,192.28646 525,192.50492 C 525,192.72338 527.95929,194.55705 531.5762,196.57974 C 535.19312,198.60243 539.35562,201.26134 540.8262,202.48843 C 545.611,206.48096 585.25527,232.53058 594.61867,237.8346 C 599.63394,240.67557 604.91107,243 606.34562,243 C 609.98416,243 612.42398,246.92644 611.58022,251.4241 C 611.22601,253.31221 608.89766,258.95955 606.40612,263.97375 C 599.86895,277.12973 599.74099,280.88422 604.90461,308.03002 C 609.34161,331.35595 609.61566,333.98434 607.8,335.8 C 606.64237,336.95763 594.31235,337.22932 586,336.28036 z M 346.37107,288.96161 C 342.47014,286.46229 338.52844,280.84953 335.58065,273.59666 L 333.31545,268.02326 L 321.40773,267.53119 C 310.15369,267.06613 293.44669,264.89179 275.5,261.55652 C 263.98348,259.41625 241.1276,259.6299 218.08259,262.09322 C 201.28167,263.88911 194.52265,264.11162 170.5,263.65967 C 155.1,263.36995 141.15,262.826 139.5,262.45089 C 136.8489,261.8482 137.51763,262.80225 145.25,270.65422 C 155.34341,280.90376 156.09586,283 149.6815,283 C 143.74839,283 136.57285,280.68474 129.8275,276.5939 C 125.10792,273.73162 124.055,273.41429 123.55974,274.7049 C 121.7868,279.32512 102.96776,271.64319 92.832302,262.16197 L 86.245135,256 L 78.372568,255.99619 C 66.307543,255.99036 31.912657,249.52657 24.894351,245.9461 C 20.745302,243.82942 20,242.44977 20,236.88609 C 20,231.74256 22.313136,226.32825 26.300681,222.13822 C 30.392918,217.83819 57.635953,199.39895 65.5,195.60646 C 81.876241,187.70892 102.74671,183.00139 134.71463,179.99445 C 151.01305,178.4614 158.73635,177.28978 163.71463,175.59517 C 171.48109,172.95147 181.66543,167.98736 187.5,164.00158 C 194.64803,159.11852 201.80299,156 205.85835,156 C 211.9035,156 212.27395,159.38689 207.68588,172.70856 L 205.54761,178.91711 L 207.61239,181.70856 C 210.84787,186.08272 216.40208,188.58513 231.5,192.47097 C 265.82864,201.30633 295.59677,213.85318 320,229.77249 C 329.80901,236.17134 346.76792,249.54368 349.87244,253.32733 C 350.88066,254.5561 352.8541,255 357.30856,255 C 360.64357,255 366.32597,255.73176 369.93611,256.62612 C 377.00088,258.37634 388.33919,263.12177 389.34511,264.74939 C 389.705,265.3317 387.99137,266.01741 385.23096,266.39565 C 382.62893,266.7522 377.35,268.15707 373.5,269.5176 C 369.65,270.87813 364.925,272.00131 363,272.01357 C 360.02806,272.03249 358.85878,272.80301 355.25,277.12054 C 351.66519,281.4094 351,282.89349 351,286.60262 C 351,289.02118 350.6625,290.99242 350.25,290.98315 C 349.8375,290.97389 348.09198,290.06419 346.37107,288.96161 z M 353.15141,277.09064 L 357.14865,272.54955 L 354.56809,271.68936 C 350.37501,270.29167 352.57023,269.17912 357.35896,270.27493 C 361.21728,271.15784 362.95941,270.89275 371.37911,268.14156 C 376.66702,266.4137 382.23245,264.96313 383.74674,264.91807 C 386.12505,264.84729 385.79103,264.51211 381.294,262.45685 C 372.16397,258.28417 364.29072,256.72556 351.7543,256.60911 C 340.09606,256.50081 335.72469,255.38933 344.6581,254.80479 L 349.3162,254.5 L 340.4081,247.06685 C 311.51659,222.95901 270.02167,203.4088 224.5,192.45709 C 216.4536,190.52127 208.65348,186.64861 206.66104,183.60027 C 203.84681,179.29465 203.80883,177.13477 206.43206,170.57772 C 209.12873,163.83711 209.57043,160.44981 208.06329,158.06816 C 206.68454,155.8894 200.02172,158.21522 190.80652,164.09208 C 170.90488,176.78405 162.91265,179.26629 133,182.04575 C 108.92338,184.28294 97.114642,186.40637 82,191.21651 C 69.198163,195.29061 63.485812,198.30916 44.268395,211.15481 C 25.80668,223.49533 22,227.6905 22,235.69578 C 22,241.05781 21.256463,241.03963 39.231617,236.11725 C 48.042113,233.70456 48,233.71071 48,234.83606 C 48,235.92459 29.067182,241 25.006653,241 C 17.111838,241 27.454818,246.11607 40,248.41633 C 44.675,249.27354 51.446281,250.62949 55.047291,251.42957 C 63.960495,253.40993 80.29803,255.00523 91.355955,254.975 L 100.5,254.94999 L 96.182457,250.87587 C 89.054643,244.14992 92.355664,245.24795 100.20949,252.2154 C 114.94825,265.29075 131.21053,276.29462 140.41249,279.41877 C 145.1555,281.02906 152,281.55752 152,280.31343 C 152,278.87663 129.17008,256.6312 122.14868,251.22635 C 118.10545,248.11401 115.29323,245.40226 115.8993,245.20023 C 117.17514,244.77495 123.52399,249.46314 130,255.61263 C 134.4707,259.85792 134.57162,259.89402 145.5,261.15719 C 162.24653,263.09285 199.57314,262.7284 216.5,260.46396 C 237.33639,257.67651 267.82149,257.79043 282.5,260.71059 C 305.52762,265.29175 326.6401,266.73339 340,264.63693 C 346.38993,263.63421 346.20307,264.63451 339.68335,266.33202 L 335.1974,267.5 L 337.75231,273.86937 C 339.27126,277.65611 341.96364,281.91361 344.39235,284.36937 L 348.47749,288.5 L 348.81583,285.06587 C 349.03917,282.79904 350.51288,280.08817 353.15141,277.09064 z M 59,225 C 59,223.49385 59.522151,222.95391 60.75,223.19037 C 63.021113,223.62775 63.021113,226.37225 60.75,226.80963 C 59.522151,227.04609 59,226.50615 59,225 z M 122,273.54494 C 122,272.74466 118.34136,269.25716 113.86969,265.79494 C 109.39802,262.33272 104.6929,258.68945 103.41387,257.69878 C 101.6523,256.33435 99.683269,255.9706 95.294182,256.19878 L 89.5,256.5 L 94.453664,261.27373 C 99.156523,265.80576 104.91996,269.12974 115,273.12352 C 120.55552,275.32466 122,275.41162 122,273.54494 z "
     id="path2618" />
</svg>
